PathFileType	4	(X/Y/Z)	TVC_60_BWA03_walk_RCNL2025.trc
DataRate	CameraRate	NumFrames	NumMarkers	Units	OrigDataRate	OrigDataStartFrame	OrigNumFrames
100	100	11	27	mm	100	35	275
Frame#	Time	R_Shoulder			L_Shoulder			C7			J_Notch			R_Elbow			L_Elbow			R_Wrist			L_Wrist			R_Asis			L_Asis			R_Psis			L_Psis			Sacral			Thoracic			Sternum			R_Thigh_Lateral			R_Knee_Lateral			R_Shank_Lateral			R_Ankle_Lateral			R_Heel			R_Toe			L_Thigh_Lateral			L_Knee_Lateral			L_Shank_Lateral			L_Ankle_Lateral			L_Heel			L_Toe		
		X1	Y1	Z1	X2	Y2	Z2	X3	Y3	Z3	X4	Y4	Z4	X5	Y5	Z5	X6	Y6	Z6	X7	Y7	Z7	X8	Y8	Z8	X9	Y9	Z9	X10	Y10	Z10	X11	Y11	Z11	X12	Y12	Z12	X13	Y13	Z13	X14	Y14	Z14	X15	Y15	Z15	X16	Y16	Z16	X17	Y17	Z17	X18	Y18	Z18	X19	Y19	Z19	X20	Y20	Z20	X21	Y21	Z21	X22	Y22	Z22	X23	Y23	Z23	X24	Y24	Z24	X25	Y25	Z25	X26	Y26	Z26	X27	Y27	Z27
35	0.34000000	-1522.843994	1312.338867	166.724594	-1547.449829	1346.657593	-185.110519	-1593.322632	1396.353027	-9.500968	-1482.839111	1267.084961	-17.626083	-1622.830688	995.129456	252.016953	-1612.645020	1011.723755	-258.448059	-1573.037964	766.896271	300.540955	-1538.150208	795.845642	-319.705246	-1501.053955	907.904663	118.725716	-1529.892578	909.840820	-161.596237	-1684.864624	907.027832	57.942699	-1696.310669	908.737366	-52.284218	-1690.587646	907.882599	2.829241	-1652.530884	1189.293945	-10.897198	-1460.382080	1070.997681	-13.369574	-1484.349365	596.287415	181.250977	-1427.907837	448.658600	100.217735	-1443.082520	229.461166	127.025368	-1481.750000	62.151428	59.093437	-1526.289429	57.012691	12.612638	-1353.274780	40.563183	43.203438	-1583.194336	628.796021	-235.486633	-1586.872070	438.930115	-170.584091	-1742.879150	327.959259	-194.522507	-1892.501831	194.608719	-115.075630	-1910.839844	228.907227	-65.744461	-1838.766235	79.253693	-117.156982
36	0.35000000	-1514.765503	1312.787231	167.459244	-1538.719727	1347.403564	-184.359299	-1585.017090	1397.167480	-8.785031	-1474.660522	1267.694824	-16.759815	-1612.571533	995.079590	253.527084	-1604.740112	1012.549805	-257.157776	-1559.410217	767.417877	300.969772	-1531.308716	796.015381	-317.634674	-1493.681641	908.614502	119.692360	-1522.353027	910.532288	-160.854233	-1677.484009	907.890198	58.564400	-1688.764771	909.258179	-51.707966	-1683.124390	908.574188	3.428217	-1644.536133	1190.182983	-10.286183	-1452.626831	1071.458862	-12.571450	-1478.975342	596.348877	181.793335	-1424.471680	448.108307	100.594185	-1441.729736	228.998764	127.116112	-1481.745605	62.160061	58.891903	-1526.216431	57.003632	12.472688	-1353.291138	40.620743	43.112164	-1569.677734	629.023315	-234.758957	-1568.748901	439.453461	-170.203995	-1725.171387	329.975677	-194.072983	-1876.017212	198.384933	-114.770035	-1894.143921	231.849380	-64.783653	-1821.730225	84.050575	-119.674194
37	0.36000000	-1506.668823	1313.198120	168.100708	-1530.160522	1348.087280	-183.680237	-1576.775757	1397.950562	-8.123281	-1466.580444	1268.250854	-15.994232	-1602.164795	995.004089	255.007980	-1596.899048	1013.291199	-255.919144	-1545.641602	767.946655	301.285812	-1524.414429	796.137329	-315.582825	-1486.463989	909.277405	120.640549	-1514.942017	911.219238	-160.149185	-1670.250732	908.720154	59.153736	-1681.360718	909.777710	-51.155048	-1675.805725	909.248932	3.999344	-1636.643555	1191.051025	-9.674568	-1445.009399	1071.859253	-11.885835	-1473.551392	596.522461	182.389984	-1421.200562	447.562378	100.953735	-1440.242188	228.541809	127.210915	-1481.735962	62.166298	58.710335	-1526.132202	56.989212	12.359002	-1353.313843	40.661774	43.044743	-1556.850098	629.444519	-233.975235	-1550.646606	440.289124	-169.727707	-1707.169678	331.818909	-193.555496	-1858.680908	201.368332	-114.455750	-1876.802612	233.849304	-63.821682	-1803.151001	88.397392	-122.204903
38	0.37000000	-1498.559692	1313.580933	168.651642	-1521.772461	1348.709473	-183.071930	-1568.600830	1398.699585	-7.515546	-1458.596924	1268.755859	-15.326367	-1591.610229	994.909668	256.450195	-1589.127808	1013.947571	-254.731888	-1531.745605	768.487488	301.486038	-1517.466675	796.216553	-313.560669	-1479.388306	909.901367	121.574875	-1507.627563	911.904968	-159.463791	-1663.149658	909.519470	59.705513	-1674.079468	910.298828	-50.632652	-1668.614563	909.909149	4.536430	-1628.848877	1191.894165	-9.063959	-1437.516113	1072.209839	-11.301393	-1468.200928	596.737122	183.026077	-1418.080933	447.023987	101.299332	-1438.642212	228.092926	127.303925	-1481.720215	62.170433	58.548519	-1526.038940	56.973064	12.265127	-1353.341919	40.684216	42.996464	-1544.596802	630.036743	-233.144135	-1532.618774	441.444122	-169.170212	-1688.913696	333.453461	-193.005127	-1840.518555	203.477905	-114.176704	-1858.834229	234.886795	-62.939232	-1783.178467	92.117401	-124.622688
39	0.38000000	-1490.443970	1313.944458	169.115784	-1513.553223	1349.270752	-182.532211	-1560.493286	1399.411743	-6.961312	-1450.706665	1269.212769	-14.751950	-1580.910400	994.802551	257.844757	-1581.430908	1014.519226	-253.595367	-1517.735413	769.045135	301.568069	-1510.466187	796.257904	-311.578842	-1472.440430	910.493408	122.498337	-1500.381348	912.591309	-158.783005	-1656.164062	910.289368	60.215809	-1666.901855	910.822449	-50.146629	-1661.532959	910.555908	5.034590	-1621.146973	1192.708862	-8.456344	-1430.132812	1072.520874	-10.805228	-1463.021118	596.935364	183.678452	-1415.100464	446.495148	101.634384	-1436.987183	227.657684	127.396255	-1481.700317	62.172821	58.405037	-1525.941650	56.958431	12.184125	-1353.375366	40.690163	42.963783	-1532.773560	630.773621	-232.272690	-1514.713745	442.911438	-168.545776	-1670.428101	334.832825	-192.459015	-1821.558472	204.649475	-113.975563	-1840.260986	234.956177	-62.215321	-1761.962891	95.068512	-126.811058
40	0.39000000	-1482.327637	1314.296753	169.497757	-1505.497559	1349.771973	-182.058258	-1552.453613	1400.084229	-6.459748	-1442.905273	1269.624268	-14.265596	-1570.070435	994.688599	259.183472	-1573.812134	1015.006836	-252.508499	-1503.624146	769.624146	301.530228	-1503.415222	796.265503	-309.647461	-1465.604248	911.059326	123.412170	-1493.179443	913.278381	-158.094940	-1649.276733	911.030334	60.681980	-1659.808716	911.347351	-49.701385	-1654.542725	911.188843	5.490297	-1613.531494	1193.490967	-7.854064	-1422.844849	1072.801147	-10.383515	-1458.065063	597.080322	184.321182	-1412.247559	445.976898	101.962471	-1435.355347	227.241394	127.495979	-1481.679565	62.173515	58.277737	-1525.847046	56.948433	12.110493	-1353.414429	40.684181	42.944660	-1521.231201	631.629944	-231.366852	-1496.973633	444.670990	-167.867050	-1651.723145	335.903076	-191.952957	-1801.830200	204.838211	-113.890594	-1821.107422	234.062759	-61.720242	-1739.641357	97.151794	-128.676056
41	0.40000000	-1474.216675	1314.644287	169.802902	-1497.597900	1350.213867	-181.646744	-1544.481079	1400.714233	-6.009730	-1435.187378	1269.992310	-13.861023	-1559.097290	994.572388	260.459106	-1566.273560	1015.411621	-251.470001	-1489.424927	770.228394	301.371521	-1496.317383	796.242737	-307.776031	-1458.862915	911.603271	124.315956	-1486.002563	913.964172	-157.391449	-1642.469971	911.742065	61.102646	-1652.781616	911.870361	-49.299870	-1647.625793	911.806213	5.901388	-1605.995605	1194.236450	-7.259785	-1415.637939	1073.058105	-10.022146	-1453.342651	597.155396	184.932907	-1409.510742	445.469116	102.287041	-1433.827759	226.846786	127.616127	-1481.661499	62.172203	58.164261	-1525.763062	56.946518	12.041258	-1353.458862	40.671787	42.938488	-1509.835083	632.583313	-230.432449	-1479.436279	446.691467	-167.144913	-1632.797974	336.607666	-191.518417	-1781.364380	204.020340	-113.953140	-1801.398804	232.219711	-61.509674	-1716.329712	98.315567	-130.155182
42	0.41000000	-1466.116699	1314.991455	170.037231	-1489.844482	1350.596558	-181.293915	-1536.574219	1401.298462	-5.609874	-1427.546387	1270.318726	-13.531287	-1548.000488	994.457397	261.665497	-1558.815674	1015.734680	-250.478363	-1475.150269	770.861053	301.091568	-1489.177429	796.192078	-305.973358	-1452.198242	912.127014	125.207870	-1478.835327	914.644775	-156.668381	-1635.725952	912.422974	61.477600	-1645.802856	912.386292	-48.943611	-1640.764404	912.404633	6.266994	-1598.531738	1194.940918	-6.676464	-1408.497437	1073.296753	-9.707363	-1448.834229	597.158203	185.503433	-1406.878052	444.970428	102.611076	-1432.468506	226.472778	127.771690	-1481.648682	62.168289	58.062473	-1525.697021	56.956650	11.976110	-1353.508423	40.658279	42.945686	-1498.480591	633.613953	-229.476776	-1462.135742	448.932373	-166.388504	-1613.644165	336.892700	-191.179916	-1760.191162	202.193939	-114.185783	-1781.157959	229.446213	-61.620586	-1692.119629	98.554321	-131.221954
43	0.42000000	-1458.032837	1315.340820	170.207108	-1482.225708	1350.919678	-180.995804	-1528.730713	1401.833740	-5.258574	-1419.975342	1270.604004	-13.269032	-1536.790771	994.345520	262.797607	-1551.437744	1015.977234	-249.532013	-1460.812500	771.524261	300.690689	-1482.000854	796.114899	-304.247345	-1445.592407	912.630493	126.085030	-1471.666504	915.314148	-155.925461	-1629.026855	913.070435	61.807678	-1638.855591	912.888306	-48.632828	-1633.941223	912.979370	6.587425	-1591.131958	1195.599731	-6.107303	-1401.409180	1073.520020	-9.426355	-1444.504639	597.094299	186.033859	-1404.336914	444.478516	102.936813	-1431.311401	226.114548	127.975655	-1481.642334	62.161030	57.970650	-1525.655029	56.983006	11.916781	-1353.561646	40.647831	42.967033	-1487.100098	634.703369	-228.509598	-1445.104126	451.346191	-165.605560	-1594.250000	336.711975	-190.953232	-1738.339233	199.378738	-114.601288	-1760.402344	225.766861	-62.069202	-1667.081665	97.903908	-131.886429
44	0.43000000	-1449.969849	1315.692505	170.319199	-1474.728516	1351.182251	-180.748322	-1520.947632	1402.316406	-4.954043	-1412.466431	1270.848389	-13.066731	-1525.480469	994.237244	263.851685	-1544.136963	1016.140381	-248.629379	-1446.423889	772.219269	300.169846	-1474.794067	796.011414	-302.604965	-1439.027344	913.111145	126.943924	-1464.487915	915.964722	-155.165955	-1622.355835	913.680603	62.094559	-1631.924072	913.368164	-48.366589	-1627.139954	913.524384	6.863985	-1583.787964	1196.208008	-5.555715	-1394.359253	1073.728760	-9.167756	-1440.310425	596.973511	186.531403	-1401.873535	443.990204	103.265518	-1430.353760	225.764954	128.235138	-1481.641968	62.149689	57.887520	-1525.640259	57.029388	11.865887	-1353.616333	40.642830	43.002789	-1475.664307	635.834412	-227.543335	-1428.371948	453.880402	-164.802643	-1574.604614	336.031708	-190.844772	-1715.834595	195.614944	-115.202385	-1739.141113	221.212143	-62.851044	-1641.270874	96.434013	-132.191956
45	0.44000000	-1441.932007	1316.044556	170.380173	-1467.338501	1351.382812	-180.547379	-1513.221191	1402.742554	-4.694371	-1405.011475	1271.050781	-12.916919	-1514.082642	994.131409	264.825195	-1536.909668	1016.224915	-247.768906	-1431.996155	772.946167	299.530579	-1467.563599	795.880646	-301.052170	-1432.486084	913.564514	127.780838	-1457.292969	916.587463	-154.396103	-1615.696655	914.248535	62.340519	-1624.993896	913.816406	-48.143036	-1620.345276	914.032471	7.098742	-1576.491333	1196.760742	-5.025278	-1387.333984	1073.921753	-8.921961	-1436.206055	596.807190	187.003815	-1399.473267	443.501495	103.597458	-1429.560181	225.416428	128.548676	-1481.645752	62.133656	57.812084	-1525.652100	57.098679	11.825969	-1353.669922	40.643543	43.051735	-1464.175049	636.990479	-226.592804	-1411.969238	456.479279	-163.985260	-1554.702881	334.834381	-190.851898	-1692.699585	190.961685	-115.982162	-1717.375000	215.819687	-63.942619	-1614.733887	94.239578	-132.208923
